# xmcd
#
# Track frame offsets: 
#        150
#        12970
#        25782
#        37092
#        50550
#        67450
#        85095
#        99277
#        113452
#        124145
#
# Disc length: 1869 seconds
#
# Revision: 2
# Processed by: cddbd v1.5PL3 Copyright (c) Steve Scherf et al.
# Submitted via: ExactAudioCopy v0.90b4
#
DISCID=7e074b0a
DTITLE=Patty Loveless - Patty Loveless
DYEAR=1900
DGENRE=Country
TTITLE0=Lonely Days, Lonley Nights
TTITLE1=I Did
TTITLE2=You Are Everything
TTITLE3=Blue Is Not A Word
TTITLE4=Slow Healing Heart
TTITLE5=After All
TTITLE6=Wicked Ways
TTITLE7=Half Over You
TTITLE8=Some Blue Moons Ago
TTITLE9=Sounds Of Loneliness
EXTD=
EXTT0=
EXTT1=
EXTT2=
EXTT3=
EXTT4=
EXTT5=
EXTT6=
EXTT7=
EXTT8=
EXTT9=
PLAYORDER=
